<svg width="71" height="102" fill="none" xmlns="http://www.w3.org/2000/svg"><path d="M35.328 75.627L1 88.314 35.328 101l34.329-12.686-34.329-12.687z" fill="#ECECEC" fill-opacity=".3" stroke="gray" stroke-linejoin="round"/><path d="M35.328 75.627L1 88.314V13.687L35.328 1l34.329 12.687v74.627L35.328 75.627z" fill="#ECECEC"/><path d="M35.328 75.627L1 88.314V13.687L35.328 1m0 74.627l34.329 12.687V13.687L35.328 1m0 74.627V1" stroke="gray" stroke-linejoin="round"/><path d="M24.88 88.996l22.389-8.177V32.343L24.88 40.52v48.476zm0-11.876l-11.94-4.478V36.464l11.94 4.477V77.12z" fill="#2682C4" stroke="gray" stroke-linejoin="round"/><path d="M24.88 88.996l22.389-8.177v-11.94L24.88 77.054v11.94zm0 .064l-11.94-4.478v-11.94l11.94 4.477v11.94z" fill="#ECECEC" stroke="gray" stroke-linejoin="round"/></svg>