<svg width="71" height="102" fill="none" xmlns="http://www.w3.org/2000/svg"><path d="M35.328 75.627L1 88.314 35.328 101l34.329-12.686-34.329-12.687z" fill="#ECECEC" stroke="gray" stroke-linejoin="round"/><path d="M35.328 75.627L1 88.313V13.687L35.328 1l34.329 12.687v74.626L35.328 75.627z" fill="#ECECEC"/><path d="M35.328 75.627L1 88.313V13.687L35.328 1m0 74.627l34.329 12.686V13.687L35.328 1m0 74.627V1" stroke="gray" stroke-linejoin="round"/><path d="M35.328 92.76l22.388-8.178V55.478l-11.194 3.731V40.195l-11.194 4.089v48.475z" fill="#ECECEC" stroke="gray" stroke-linejoin="round"/><path d="M35.328 92.76L12.94 84.581v-35.82l11.194 5.223V27.477l11.194 4.088V92.76z" fill="#2682C4" stroke="gray" stroke-linejoin="round"/></svg>