<svg width="24" height="33" fill="none" xmlns="http://www.w3.org/2000/svg"><path d="M15.378 8.134v7.548-2.079c0-.626.491-1.134 1.097-1.134.605 0 1.097.508 1.097 1.134v2.08-.946c0-.626.492-1.134 1.098-1.134.605 0 1.096.508 1.096 1.134v2.081-.57c0-.626.491-1.133 1.096-1.133.607 0 1.098.507 1.098 1.133v5.866-.001a3.698 3.698 0 01-1.035 2.579 4.155 4.155 0 00-1.159 2.893 4.534 4.534 0 01-6.581 0h-.002v-2.878a4.558 4.558 0 01-2.193-3.923L9.64 13.74c1.186-.245 2.343.554 2.578 1.782v.001l.574 2.992h.393l-.002-10.38c0-.628.492-1.135 1.097-1.135.606 0 1.098.507 1.098 1.134zM7 8.32l1.76 1.32V7L7 8.32zm14.08.001L19.32 7v2.64l1.76-1.319zM15.8 7.88h3.52-3.52zm-7.04 0h4.4-4.4z" stroke="#787878" stroke-width=".7" stroke-miterlimit="10" stroke-linecap="round" stroke-linejoin="round"/></svg>