<svg width="46" height="56" fill="none" xmlns="http://www.w3.org/2000/svg"><path d="M14.063 23.5a8.937 8.937 0 1117.875 0 8.937 8.937 0 01-17.875 0z" fill="#2682C4"/><path fill-rule="evenodd" clip-rule="evenodd" d="M.378 20.413C1.323 8.948 10.903.125 22.407.125h1.188c11.503 0 21.083 8.823 22.028 20.288a23.906 23.906 0 01-5.318 17.096L27.124 53.63c-2.131 2.607-6.116 2.607-8.247 0L5.697 37.51a23.906 23.906 0 01-5.32-17.096zM23 10.437c-7.214 0-13.062 5.849-13.062 13.063S15.786 36.563 23 36.563c7.215 0 13.063-5.849 13.063-13.063S30.215 10.437 23 10.437z" fill="#2682C4"/></svg>