<svg width="18" height="18" fill="none" xmlns="http://www.w3.org/2000/svg"><path d="M9.345 2.516c2.258 0 2.525.009 3.417.05.824.037 1.272.175 1.57.29.395.154.676.337.972.633.296.296.48.577.633.972.116.298.253.746.29 1.57.041.892.05 1.16.05 3.417 0 2.258-.009 2.525-.05 3.417-.037.824-.174 1.272-.29 1.57a2.623 2.623 0 01-.633.972c-.296.296-.577.48-.972.633-.298.116-.746.253-1.57.29-.892.041-1.159.05-3.417.05s-2.525-.009-3.417-.05c-.824-.037-1.272-.174-1.57-.29a2.623 2.623 0 01-.972-.633 2.614 2.614 0 01-.633-.972c-.115-.298-.253-.746-.29-1.57-.041-.892-.05-1.159-.05-3.417s.009-2.525.05-3.417c.037-.824.175-1.272.29-1.57.154-.395.337-.676.633-.972.296-.296.577-.48.972-.633.298-.115.746-.253 1.57-.29.892-.041 1.16-.05 3.417-.05zm0-1.523c-2.296 0-2.584.01-3.486.05-.9.042-1.515.185-2.053.394a4.141 4.141 0 00-1.497.975c-.47.47-.76.942-.975 1.497-.21.538-.352 1.153-.393 2.053C.899 6.864.89 7.152.89 9.448c0 2.297.01 2.585.05 3.486.042.9.185 1.515.394 2.053.216.556.505 1.028.975 1.498s.942.759 1.498.975c.537.209 1.152.352 2.052.393.902.041 1.19.05 3.486.05 2.297 0 2.585-.009 3.487-.05.9-.041 1.514-.184 2.052-.393a4.143 4.143 0 001.498-.976c.47-.47.759-.941.975-1.497.21-.538.352-1.153.393-2.053.041-.901.051-1.19.051-3.486 0-2.296-.01-2.584-.05-3.486-.042-.9-.185-1.515-.394-2.053a4.142 4.142 0 00-.975-1.497c-.47-.47-.942-.76-1.498-.976-.538-.208-1.153-.351-2.053-.392-.901-.042-1.19-.051-3.486-.051z" fill="#fff"/><path d="M9.345 5.106a4.342 4.342 0 100 8.684 4.342 4.342 0 000-8.684zm0 7.16a2.818 2.818 0 110-5.636 2.818 2.818 0 010 5.637zm4.513-6.317a1.015 1.015 0 100-2.03 1.015 1.015 0 000 2.03z" fill="#fff"/></svg>