<svg width="177" height="38" fill="none" xmlns="http://www.w3.org/2000/svg"><g clip-path="url(#clip0_337_16001)"><path d="M170.574 15.76c-.273 0-.545-.069-.75-.272-.545-.476-.681-1.29-.204-1.902l5.111-6.997c.409-.611 1.227-.68 1.772-.272.545.476.681 1.291.204 1.902l-5.111 6.997c-.204.34-.613.543-1.022.543z" fill="#2682C4"/><path d="M170.643 15.76c-.341 0-.75-.136-.954-.476l-5.452-7.065c-.477-.543-.341-1.426.204-1.902.546-.475 1.363-.407 1.772.204l5.452 7.065c.477.543.341 1.426-.204 1.902-.273.136-.546.271-.818.271z" fill="#D61217"/><path d="M170.44 17.39c-.681 0-1.295.611-1.295 1.358 0 4.076-1.772 8.22-4.906 11.276-3.067 3.057-7.088 4.62-10.836 4.28-3.203-.272-6.133-1.834-8.178-4.483-1.908-2.446-2.862-5.435-2.589-8.424.613-7.2 5.792-10.392 10.699-10.392 2.317 0 4.838 1.222 6.406 3.124 1.09 1.29 2.249 3.464 1.908 6.657-.205 2.106-1.091 3.804-2.522 4.959-1.499 1.223-3.611 1.698-5.383 1.358-2.181-.407-4.566-2.377-4.157-5.638.34-2.853 2.317-3.736 3.884-3.532 2.794.408 2.794 2.717 2.658 3.397-.273 1.698-1.499 1.562-1.704 1.562-1.022-.136-.886-1.019-.749-1.359.272-.679 0-1.494-.614-1.766-.613-.34-1.363 0-1.704.68-.408 1.018-.34 2.173.137 3.192.545.951 1.431 1.63 2.453 1.766 1.84.272 4.021-.815 4.634-3.396.341-1.495.068-2.989-.749-4.212-.955-1.358-2.522-2.31-4.157-2.445-2.795-.204-6.066 1.562-6.611 5.978-.477 4.143 2.113 7.608 6.27 8.423 2.453.475 5.315-.204 7.36-1.902 2.044-1.63 3.271-3.94 3.544-6.793.408-4.212-1.159-7.133-2.522-8.763-2.113-2.513-5.247-4.008-8.314-4.008a13.05 13.05 0 00-8.655 3.26c-2.59 2.31-4.225 5.639-4.566 9.579-.341 3.736.75 7.404 3.135 10.393 2.521 3.192 6.065 5.094 9.95 5.434.409.068.817.068 1.158.068 4.157 0 8.314-1.766 11.585-5.027 3.612-3.6 5.725-8.423 5.725-13.246 0-.747-.614-1.358-1.295-1.358zM21.194 9.238c-1.772 0-3.271 1.563-3.271 3.465V25.2c0 3.465-2.794 6.386-6.338 6.318-3.135-.068-5.315-3.125-5.315-6.59V12.5c0-1.834-1.023-3.193-2.999-3.193C1.295 9.306 0 10.87 0 12.771v12.498c0 6.929 5.656 12.227 11.653 12.227 9.337-.135 12.812-7.947 12.812-11.955V12.703c0-1.834-1.499-3.465-3.27-3.465zM33.735.272c-1.636 0-3.067 1.494-3.067 3.26v30.092c0 1.767 1.431 3.261 3.067 3.261 1.635 0 3.066-1.494 3.066-3.26V3.6c0-1.766-1.43-3.328-3.066-3.328zm14.309 0C45.93.272 44.5 1.766 44.5 3.804c0 2.038 1.431 3.532 3.544 3.532 2.112 0 3.543-1.494 3.543-3.532 0-2.038-1.363-3.532-3.543-3.532zm-.001 10.393c-1.635 0-3.066 1.494-3.066 3.26v19.7c0 1.766 1.43 3.26 3.066 3.26s3.067-1.494 3.067-3.26v-19.7c.068-1.766-1.363-3.26-3.067-3.26zM74.01 30.296c-.546 0-.886.068-1.159.272l-.477.271c-.136.068-.34.204-.477.272-.34.136-.681.272-1.158.272-2.045 0-3.817-.951-3.817-3.532V17.186h5.248c1.635 0 2.862-1.29 2.862-3.057 0-2.038-1.159-3.057-2.862-3.057h-5.248V3.261c0-1.767-1.43-3.261-3.066-3.261s-3.067 1.494-3.067 3.26v7.88h-.954c-1.636 0-2.862 1.29-2.862 3.057 0 1.766 1.158 3.057 2.862 3.057h.954V27.85c0 5.434 3.884 9.577 9.268 9.577 4.975 0 6.883-2.037 6.883-4.007-.068-1.834-1.227-3.125-2.93-3.125zM84.914.272c-1.635 0-3.066 1.494-3.066 3.26v30.092c0 1.767 1.43 3.261 3.066 3.261s3.067-1.494 3.067-3.26V3.6c.068-1.766-1.363-3.328-3.067-3.328zm17.991 30.568l-6.61-8.424 6.133-6.52a4.77 4.77 0 00.545-.68c.341-.475.613-1.087.613-1.834 0-1.562-1.158-3.057-2.726-3.057-.681 0-1.294.272-1.771.68-.273.135-.477.34-.75.61l-8.041 9.171s-1.295 1.155-1.159 1.97c.136 1.019 1.09 2.038 1.09 2.038L99.02 35.39c.205.271.41.475.614.679.409.34.954.611 1.635.611 1.568 0 2.726-1.29 2.726-3.056 0-.612-.272-1.291-.613-1.902a1.895 1.895 0 00-.477-.883zm26.644-20.379c-1.567 0-2.93 1.359-2.998 2.989-2.045-1.766-4.566-3.057-7.36-3.057-6.747 0-12.199 5.774-12.199 12.906 0 7.133 5.452 12.907 12.199 12.907 2.794 0 5.315-1.223 7.36-2.99.136 1.631 1.431 2.922 2.998 2.922 1.636 0 2.999-1.495 2.999-3.193V13.654c0-1.699-1.363-3.193-2.999-3.193zm-10.086 20.446c-3.816 0-6.883-3.396-6.883-7.54 0-4.143 3.067-7.54 6.883-7.54 3.817 0 6.883 3.397 6.883 7.54 0 4.144-3.066 7.54-6.883 7.54z" fill="#222"/></g><defs><clipPath id="clip0_337_16001"><path fill="#fff" d="M0 0h177v38H0z"/></clipPath></defs></svg>