<svg width="164" height="35" fill="none" xmlns="http://www.w3.org/2000/svg"><g clip-path="url(#clip0_337_12112)"><path d="M158.047 14.515c-.253 0-.505-.062-.695-.25-.505-.438-.631-1.189-.189-1.752l4.736-6.444c.378-.563 1.136-.626 1.641-.25.505.438.632 1.188.19 1.751l-4.736 6.445c-.189.313-.568.5-.947.5z" fill="#2682C4"/><path d="M158.11 14.515c-.316 0-.695-.125-.884-.438l-5.051-6.507c-.442-.5-.316-1.313.189-1.751.505-.438 1.263-.376 1.642.187l5.051 6.507c.442.5.316 1.314-.189 1.752-.253.125-.505.25-.758.25z" fill="#D61217"/><path d="M157.921 16.017c-.632 0-1.2.563-1.2 1.25 0 3.755-1.642 7.571-4.546 10.387-2.842 2.815-6.567 4.254-10.04 3.941-2.968-.25-5.683-1.689-7.577-4.129-1.768-2.252-2.652-5.005-2.4-7.758.569-6.632 5.368-9.573 9.914-9.573 2.147 0 4.483 1.127 5.935 2.878 1.011 1.19 2.084 3.191 1.768 6.132-.189 1.94-1.01 3.503-2.336 4.567-1.389 1.126-3.347 1.564-4.988 1.251-2.021-.375-4.231-2.19-3.852-5.193.316-2.627 2.147-3.44 3.599-3.253 2.589.375 2.589 2.503 2.463 3.128-.253 1.564-1.389 1.44-1.579 1.44-.947-.126-.821-.94-.694-1.252.252-.626 0-1.376-.569-1.627-.568-.313-1.263 0-1.578.626-.379.938-.316 2.002.126 2.94.505.877 1.326 1.502 2.273 1.627 1.705.25 3.726-.75 4.294-3.128.316-1.376.063-2.753-.695-3.879-.884-1.251-2.336-2.127-3.851-2.252-2.589-.188-5.62 1.439-6.125 5.505-.442 3.817 1.957 7.008 5.809 7.759 2.273.438 4.925-.188 6.819-1.752 1.895-1.502 3.031-3.63 3.284-6.257.379-3.879-1.074-6.57-2.337-8.07-1.957-2.316-4.862-3.692-7.703-3.692a12.128 12.128 0 00-8.019 3.003c-2.4 2.127-3.915 5.193-4.231 8.822-.316 3.44.695 6.82 2.905 9.572 2.336 2.94 5.62 4.693 9.219 5.005.379.063.757.063 1.073.063 3.852 0 7.704-1.627 10.734-4.63 3.347-3.316 5.304-7.758 5.304-12.2 0-.688-.568-1.251-1.199-1.251zM19.637 8.509c-1.641 0-3.03 1.439-3.03 3.19v11.513c0 3.19-2.59 5.88-5.873 5.818-2.904-.062-4.925-2.878-4.925-6.069v-11.45c0-1.688-.947-2.94-2.778-2.94S0 10.011 0 11.762v11.512c0 6.382 5.24 11.262 10.797 11.262 8.651-.125 11.871-7.32 11.871-11.012V11.7c0-1.69-1.389-3.191-3.03-3.191zM31.256.25c-1.515 0-2.841 1.377-2.841 3.004V30.97c0 1.627 1.326 3.003 2.841 3.003 1.515 0 2.841-1.376 2.841-3.003V3.316c0-1.627-1.326-3.066-2.841-3.066zm13.26 0c-1.958 0-3.284 1.377-3.284 3.254s1.326 3.253 3.284 3.253c1.957 0 3.283-1.376 3.283-3.253C47.8 1.627 46.536.25 44.516.25zm0 9.573c-1.516 0-2.842 1.376-2.842 3.003V30.97c0 1.627 1.326 3.003 2.842 3.003 1.515 0 2.841-1.376 2.841-3.003V12.826c.063-1.627-1.263-3.003-2.841-3.003zm24.057 18.081c-.505 0-.82.063-1.073.25l-.442.25c-.126.063-.316.188-.442.251-.316.125-.632.25-1.073.25-1.895 0-3.537-.876-3.537-3.253v-9.823h4.862c1.516 0 2.653-1.189 2.653-2.815 0-1.877-1.074-2.816-2.653-2.816h-4.861V3.003C62.007 1.376 60.68 0 59.165 0c-1.515 0-2.841 1.376-2.841 3.003v7.258h-.884c-1.516 0-2.652 1.189-2.652 2.815 0 1.627 1.073 2.816 2.652 2.816h.884v9.76c0 5.005 3.599 8.822 8.587 8.822 4.61 0 6.377-1.877 6.377-3.692-.063-1.69-1.136-2.878-2.715-2.878zM78.676.25c-1.515 0-2.841 1.377-2.841 3.004V30.97c0 1.627 1.326 3.003 2.841 3.003 1.516 0 2.842-1.376 2.842-3.003V3.316C81.58 1.69 80.255.25 78.676.25zm16.67 28.154l-6.125-7.758 5.683-6.006c.19-.188.379-.438.505-.626.316-.438.568-1 .568-1.689 0-1.439-1.073-2.815-2.526-2.815-.631 0-1.2.25-1.641.625-.253.126-.442.313-.695.563l-7.45 8.447s-1.2 1.064-1.074 1.814c.126.939 1.01 1.877 1.01 1.877l8.146 9.76c.189.25.378.438.568.626a2.35 2.35 0 001.515.563c1.453 0 2.526-1.189 2.526-2.815 0-.563-.252-1.189-.568-1.752a1.738 1.738 0 00-.442-.814zm24.689-18.769c-1.452 0-2.715 1.251-2.778 2.753-1.894-1.627-4.231-2.816-6.82-2.816-6.251 0-11.302 5.318-11.302 11.888s5.051 11.887 11.302 11.887c2.589 0 4.926-1.126 6.82-2.753.126 1.502 1.326 2.69 2.778 2.69 1.516 0 2.778-1.376 2.778-2.94V12.575c0-1.564-1.262-2.94-2.778-2.94zm-9.345 18.832c-3.536 0-6.378-3.128-6.378-6.945 0-3.816 2.842-6.944 6.378-6.944s6.377 3.128 6.377 6.944c0 3.817-2.841 6.945-6.377 6.945z" fill="#fff"/></g><defs><clipPath id="clip0_337_12112"><path fill="#fff" d="M0 0h164v35H0z"/></clipPath></defs></svg>