<svg width="247" height="207" fill="none" xmlns="http://www.w3.org/2000/svg"><path d="M203.97 65.1c-1.826 0-3.652-.454-5.021-1.814-3.651-3.174-4.564-8.614-1.369-12.694l34.231-46.696c2.738-4.08 8.215-4.534 11.867-1.813 3.651 3.173 4.564 8.613 1.369 12.694l-34.231 46.695c-1.369 2.267-4.108 3.627-6.846 3.627z" opacity=".3" fill="#2682C4"/><path d="M204.426 65.1c-2.282 0-5.02-.907-6.39-3.174l-36.513-47.15c-3.194-3.626-2.282-9.52 1.37-12.693 3.651-3.174 9.128-2.72 11.866 1.36l36.513 47.149c3.195 3.627 2.282 9.52-1.369 12.694-1.826.906-3.651 1.813-5.477 1.813z" opacity=".3" fill="#D61217"/><path d="M203.056 75.98c-4.564 0-8.671 4.08-8.671 9.067 0 27.201-11.867 54.856-32.862 75.257-20.539 20.401-47.467 30.829-72.57 28.562-21.451-1.814-41.077-12.241-54.77-29.922-12.779-16.321-19.169-36.268-17.343-56.216 4.108-48.056 38.795-69.364 71.657-69.364 15.518 0 32.405 8.16 42.903 20.855 7.302 8.614 15.061 23.121 12.779 44.429-1.369 14.054-7.302 25.388-16.887 33.095-10.041 8.16-24.19 11.334-36.057 9.067-14.605-2.72-30.58-15.868-27.84-37.629 2.281-19.04 15.517-24.934 26.015-23.574 18.713 2.72 18.713 18.134 17.8 22.668-1.826 11.334-10.041 10.427-11.41 10.427-6.847-.907-5.934-6.801-5.021-9.067 1.826-4.534 0-9.974-4.108-11.788-4.108-2.266-9.128 0-11.41 4.534-2.739 6.8-2.282 14.507.913 21.308 3.65 6.347 9.584 10.88 16.43 11.787 12.324 1.813 26.929-5.44 31.037-22.668 2.282-9.974.456-19.948-5.021-28.108-6.39-9.067-16.887-15.414-27.841-16.32-18.713-1.36-40.62 10.426-44.272 39.895-3.195 27.654 14.149 50.776 41.99 56.216 16.431 3.173 35.6-1.36 49.292-12.694 13.693-10.881 21.908-26.295 23.734-45.336 2.738-28.108-7.759-47.602-16.887-58.483-14.149-16.774-35.144-26.748-55.683-26.748-21.451 0-41.99 7.707-57.964 21.761C13.645 52.405 2.69 74.62.409 100.914c-2.282 24.935 5.02 49.416 20.995 69.364 16.887 21.308 40.62 34.002 66.636 36.269 2.739.453 5.477.453 7.76.453 27.841 0 55.682-11.787 77.59-33.548 24.189-24.028 38.338-56.217 38.338-88.405 0-4.987-4.107-9.067-8.672-9.067z" opacity=".3" fill="#030300"/></svg>