<svg width="18" height="11" fill="none" xmlns="http://www.w3.org/2000/svg"><path fill-rule="evenodd" clip-rule="evenodd" d="M10.278 10.171s.305-.035.461-.212c.144-.162.14-.467.14-.467s-.02-1.426.609-1.636c.62-.207 1.417 1.379 2.262 1.988.639.462 1.124.36 1.124.36l2.258-.033s1.181-.076.621-1.053c-.046-.08-.326-.723-1.679-2.043-1.416-1.383-1.226-1.16.48-3.55 1.038-1.456 1.454-2.345 1.324-2.726-.124-.363-.888-.267-.888-.267l-2.543.017s-.188-.028-.328.06c-.137.086-.224.287-.224.287s-.403 1.127-.94 2.086c-1.132 2.021-1.585 2.129-1.77 2.003-.43-.293-.323-1.176-.323-1.803 0-1.96.283-2.777-.55-2.988-.276-.07-.48-.117-1.187-.124-.907-.01-1.675.003-2.11.227-.29.149-.512.48-.376.5.168.023.548.108.75.396.26.373.252 1.21.252 1.21s.15 2.307-.35 2.594c-.343.196-.813-.205-1.822-2.04C4.95 2.019 4.56.98 4.56.98S4.486.785 4.35.681a1.02 1.02 0 00-.39-.166L1.544.532s-.362.01-.496.176c-.118.148-.009.453-.009.453s1.892 4.655 4.034 7c1.964 2.152 4.194 2.01 4.194 2.01h1.011z" fill="#fff"/></svg>