<svg width="24" height="26" fill="none" xmlns="http://www.w3.org/2000/svg"><path d="M12.665 5.449a.45.45 0 00.67.602l-.67-.602zm.498 3.503a.45.45 0 10.674.596l-.674-.596zm2.155 7.616a.45.45 0 00-.636-.636l.636.636zm.5 4a.45.45 0 00-.636-.636l.636.636zm4.343 2.537l-.436-.11.436.11zm1.694-1.694l.109.437-.11-.437zM18 21.375l-.11.437.11-.437zm1.891-2.19l-.436-.11.436.11zm.256.153l.437-.109-.437.11zm1.765 2.06l-.11-.438.11.437zm-2.008 1.967l-.437.11.437-.11zm.192 0l-.436-.109.436.11zm-.01-4.27l.437-.11-.437.11zm-.172 0l.436.109-.436-.11zm-1.98 2.264l-.108.436.109-.436zm5.516 2.891V1.75h-.9v22.5h.9zM17.5.3H2v.9h15.5V.3zm-.334.149l-4.5 5 .668.602 4.5-5-.668-.602zM22 .3h-1v.9h1V.3zm-1 0h-3.5v.9H21V.3zm-.337.152l-4.849 5.495a116408.524 116408.524 0 01-2.45 2.776c-.065.074-.115.132-.15.17a27.157 27.157 0 00-.051.059l.337.298.338.298v-.001l.003-.003a2.09 2.09 0 00.01-.011l.038-.044.15-.17.558-.633 1.892-2.143 4.848-5.495-.674-.596zM2 25.7h4v-.9H2v.9zm4-.45l.318.318h.001v-.001l.001-.001h.001l.001-.002h.001l.001-.002.002-.001.001-.002.002-.001.001-.002.002-.002.002-.002a.099.099 0 01.004-.004l.002-.002.003-.002.002-.003.003-.003.003-.002.003-.003a.209.209 0 01.003-.003l.003-.003.003-.004a.345.345 0 01.003-.003l.004-.003a.3.3 0 01.003-.004l.004-.004.004-.003a.09.09 0 00.004-.004c0-.002.002-.003.004-.004 0-.002.002-.003.004-.004l.004-.005.004-.004a.474.474 0 01.005-.004l.004-.005.005-.005a.726.726 0 01.005-.005l.005-.004a.6.6 0 01.01-.01l.005-.006.006-.005.005-.006.006-.005.005-.006.006-.006.006-.006a.855.855 0 01.006-.006l.006-.006.006-.006.007-.006.006-.007a1.357 1.357 0 01.014-.013l.006-.007a.894.894 0 01.007-.007l.007-.007.007-.007a.305.305 0 00.007-.007l.008-.007.007-.008.008-.007.007-.008.008-.008a1.44 1.44 0 01.008-.007l.008-.008a1.524 1.524 0 01.016-.017l.008-.008.008-.008.009-.009.008-.008.009-.009.009-.008.009-.01.009-.008.009-.01.009-.008.009-.01.01-.009.009-.01a.608.608 0 01.01-.009l.009-.01.01-.01.01-.009.01-.01.01-.01.01-.01a.577.577 0 00.02-.02l.01-.01a2.588 2.588 0 01.021-.022l.01-.01a2.73 2.73 0 01.012-.011l.01-.011.011-.01a3.836 3.836 0 01.022-.023l.012-.011.011-.012a3.06 3.06 0 01.011-.011l.012-.011.011-.012a4.28 4.28 0 01.024-.023l.012-.012.012-.012.012-.012.012-.012.012-.012.012-.013.013-.012.012-.013.013-.012.012-.013.013-.013.013-.012.013-.013.013-.013.013-.013a5.432 5.432 0 01.026-.027l.013-.013.014-.013.013-.014.014-.013.013-.014.014-.014.014-.013.014-.014.014-.014.014-.014.014-.014.014-.014.014-.015a6.483 6.483 0 01.029-.028l.014-.015.015-.015a6.763 6.763 0 01.03-.029l.014-.015.015-.015a10.575 10.575 0 01.03-.03l.015-.015.015-.015.016-.015.015-.016.015-.015.016-.016.016-.015.015-.016.016-.015.016-.016.016-.016.015-.016.016-.016.017-.016.016-.016.016-.017.016-.016.017-.016.016-.017a1.51 1.51 0 00.033-.033l.017-.016a2.191 2.191 0 01.033-.034l.017-.017.017-.016.017-.017a2.099 2.099 0 01.034-.035l.017-.017.017-.017a2.17 2.17 0 01.052-.052l.018-.018.017-.017.018-.018.018-.017.018-.018.017-.018.018-.018.018-.018.018-.018.018-.018.018-.018.018-.018a3.472 3.472 0 00.037-.037l.018-.018.019-.018.018-.019.019-.018.018-.019.019-.019.019-.018.018-.02.02-.018a16.799 16.799 0 01.037-.038l.02-.019.018-.019.02-.019.018-.019.02-.02.019-.018.02-.02.019-.02.019-.019.02-.019.019-.02.02-.02.02-.019.019-.02.02-.02.02-.019.02-.02.02-.02.019-.02.02-.02.02-.02.02-.02.02-.02.02-.02.02-.02.021-.02.02-.02.02-.021.021-.02.02-.021.021-.02.02-.021.021-.02.02-.021.022-.021.02-.02.021-.022.02-.02.022-.021.02-.021.022-.021a20.789 20.789 0 01.063-.063l.02-.021.022-.022.021-.02.021-.022.022-.021.021-.022a4.314 4.314 0 00.043-.042l.021-.022.022-.021.021-.022.022-.021.021-.022a44.049 44.049 0 01.044-.043l.021-.022.022-.022.022-.021.022-.022a3.738 3.738 0 01.087-.088 45.467 45.467 0 01.044-.044l.022-.022.022-.022.022-.022.023-.022.022-.022.022-.023.022-.022.022-.022.023-.022.022-.023.022-.022.023-.022.022-.023.022-.022.023-.023.022-.022.023-.023a4.805 4.805 0 00.045-.045l.023-.022.022-.023.023-.023.023-.022.022-.023.023-.023.023-.023.023-.022a4.933 4.933 0 00.045-.046l.023-.023.023-.023.023-.023.023-.022.023-.023.023-.023.023-.023.023-.023.023-.023.023-.023.023-.023.023-.024.023-.023.023-.023.023-.023.023-.023.024-.023.023-.023.023-.024.023-.023.023-.023.024-.023.023-.024.023-.023.024-.023.023-.023.023-.024.024-.023.023-.023.023-.024.024-.023.023-.024.024-.023.023-.024.023-.023.024-.024.023-.023.024-.023.023-.024.024-.023.023-.024.024-.023.023-.024.024-.023.023-.024.024-.024.024-.023.023-.024.024-.023.023-.024.024-.023.023-.024.024-.024.024-.023.023-.024.024-.023.023-.024.024-.024.024-.023.023-.024.024-.024.024-.023.023-.024.024-.023.024-.024.023-.024.024-.023.023-.024.024-.024.024-.023.023-.024.024-.024.024-.023.023-.024.024-.023.024-.024.023-.024.024-.023.023-.024.024-.024.024-.023.023-.024.024-.023.024-.024.023-.024.024-.023.023-.024.024-.024.024-.023.023-.024.024-.023.023-.024.024-.023.023-.024.024-.024.024-.023.023-.024.024-.023.023-.024.024-.023.023-.024.024-.023.023-.023.023-.024.024-.023.023-.024.024-.023.023-.024.023-.023.024-.024.023-.023.024-.023.023-.024.023-.023.024-.023.023-.023.023-.024.023-.023.024-.023.023-.023.023-.024.023-.023.024-.023.023-.023.023-.023.023-.024.023-.023.023-.023.023-.023.023-.023.023-.023.023-.023.023-.023.023-.023.023-.023.023-.023.023-.023.023-.023.023-.022.023-.023.022-.023.023-.023.023-.022.023-.023.022-.023.023-.023.023-.022.022-.023.023-.023.023-.022.022-.023.023-.022.022-.023.023-.022.022-.023.022-.022.023-.023.022-.022.023-.022.022-.023.022-.022.022-.022.023-.022.022-.022.022-.023.022-.022.022-.022.022-.022.022-.022.022-.022.022-.022.022-.022.022-.021.022-.022.022-.022.021-.022.022-.022.022-.021.021-.022.022-.022.022-.021.021-.022.022-.021.021-.022.022-.021.021-.022.021-.021.022-.022.021-.02.021-.022.022-.021.02-.021.022-.021.021-.022.021-.02.021-.022.021-.02.021-.022.02-.02.022-.021.02-.021.021-.02.02-.021.022-.021.02-.02-.636-.637-.02.02-.022.021-.02.02-.02.022-.022.02-.02.021-.021.021-.021.021-.021.02-.021.022-.021.021-.021.021-.022.021-.02.021-.022.022-.021.02a4.247 4.247 0 00-.021.022l-.022.021-.021.022-.022.021-.021.022-.022.021-.021.022-.022.021-.021.022-.022.021-.022.022-.021.022-.022.022-.022.021-.022.022-.021.022-.022.022-.022.022-.022.022-.022.022-.022.022-.022.022-.022.022-.023.022-.022.022-.022.022-.022.023-.022.022-.023.022-.022.022-.022.023-.022.022-.023.022-.022.023-.023.022-.022.023-.023.022-.022.023-.023.023-.022.022-.023.023-.023.022-.022.023-.023.023-.023.022-.022.023-.023.023-.023.023-.023.022-.023.023-.023.023-.022.023-.023.023-.023.023-.023.023-.023.023-.023.023-.023.023-.023.023-.023.023-.023.023-.023.023-.024.023-.023.023-.023.023-.023.023-.023.024-.023.023-.024.023-.023.023-.023.024-.023.023-.024.023-.023.023-.023.024-.024.023-.023.023-.023.024-.024.023-.023.023-.023.024-.024.023-.023.024-.024.023-.023.024-.024.023-.023.024-.023.023-.024.024-.023.023-.024.024-.023.023-.024.023-.024.024-.023.024-.024.023-.023.024-.024.023-.023.024-.024.024-.023.023-.024.024-.024.023-.023.024-.024.023-.024.024-.023.024-.024.023-.023.024-.024.024-.024.023-.023.024-.024.023-.024.024-.023.024-.024.023-.023.024-.024.024-.024.023-.023.024-.024.024-.024.023-.023.024-.024.024-.024.023-.023.024-.024.023-.024.024-.023.024-.024.023-.023.024-.024.024-.024.023-.023.024-.024.023-.023.024-.024.024-.024.023-.023.024-.024.023-.023.024a293381347070.932 293381347070.932 0 01-.048.047l-.023.024-.024.023-.023.024-.024.023-.023.024-.024.023-.023.024-.024.023-.023.024-.024.023-.023.024-.023.023-.024.023-.023.024-.024.023-.023.024-.024.023-.023.023-.023.024-.024.023-.023.023-.023.024-.023.023-.024.023-.023.024-.023.023-.023.023-.024.023-.023.023-.023.024-.023.023-.023.023-.023.023-.023.023-.024.023-.023.023-.023.023-.023.023-.023.023-.023.023-.023.023-.023.023-.023.023-.022.023-.023.023a49.076 49.076 0 01-.046.046l-.023.022-.023.023a48.85 48.85 0 00-.022.023l-.023.023-.023.022-.022.023-.023.023-.023.022a4.378 4.378 0 00-.067.068l-.023.023-.022.022-.023.022-.022.023-.023.022-.022.023a4.694 4.694 0 01-.022.022l-.023.022-.022.023-.022.022a4.681 4.681 0 00-.023.022l-.022.022a46.34 46.34 0 00-.066.067l-.022.022-.022.022a3.804 3.804 0 00-.044.044l-.022.022a45.249 45.249 0 00-.044.044l-.022.021-.022.022-.021.022-.022.022-.022.021a3.695 3.695 0 00-.021.022l-.022.022-.022.021-.021.022-.022.021-.021.022-.022.021-.021.022-.021.021-.022.021-.021.022-.021.02a4.708 4.708 0 01-.021.022l-.022.021-.02.021-.022.021a20.834 20.834 0 00-.084.084l-.02.021-.021.02-.021.022-.02.02a4.453 4.453 0 01-.042.042l-.02.02-.021.02-.02.022c-.008.006-.014.013-.021.02l-.02.02-.021.02-.02.021-.02.02-.02.02-.021.02a3.491 3.491 0 00-.02.02l-.02.02a18.96 18.96 0 00-.04.041l-.02.02-.02.02a18.523 18.523 0 00-.04.04l-.02.02-.02.019-.019.02-.02.019-.019.02-.02.019-.019.02-.02.019-.019.02a17.46 17.46 0 00-.019.018l-.019.02a17.31 17.31 0 00-.02.019l-.018.019-.02.019-.018.019a16.88 16.88 0 00-.038.038l-.019.018-.019.02-.018.018a16.361 16.361 0 00-.056.056l-.019.018-.018.019-.018.018-.019.018-.018.018-.018.019-.018.018a3.858 3.858 0 01-.036.036l-.018.018-.018.018-.018.017-.018.018-.017.018-.018.017-.017.018-.018.018a14.31 14.31 0 00-.052.052l-.017.017a2.32 2.32 0 00-.052.051.091.091 0 01-.017.017l-.016.017a13.34 13.34 0 00-.05.05l-.017.017a2.162 2.162 0 00-.017.017l-.016.016-.017.017-.016.016a3.13 3.13 0 01-.049.048l-.016.017-.016.015-.016.017-.016.015-.016.016-.015.016-.016.015-.015.016-.016.016-.015.015-.016.015-.015.016-.015.015-.015.015a7.107 7.107 0 00-.03.03l-.015.015-.015.015-.015.014-.014.015-.015.015-.014.014-.015.015-.014.014-.015.014-.014.014a6.255 6.255 0 00-.028.028l-.014.014-.014.014-.013.014-.014.014-.014.013-.013.014-.014.013-.013.014-.014.013a5.488 5.488 0 00-.026.026l-.013.014-.013.012c-.004.005-.008.01-.013.013l-.013.013-.012.013-.013.013-.012.012-.013.012a4.795 4.795 0 00-.024.025l-.013.012-.012.012a4.531 4.531 0 00-.012.012l-.012.012-.012.012a4.33 4.33 0 00-.023.024l-.012.011a4.127 4.127 0 00-.022.023l-.012.011-.01.011-.012.012a.879.879 0 00-.011.01l-.011.012-.01.01-.012.011-.01.01a5.242 5.242 0 00-.021.022l-.01.01a.768.768 0 00-.011.01l-.01.01-.01.01-.01.01a3.085 3.085 0 00-.01.01l-.01.01-.01.01-.01.01a.656.656 0 00-.009.01l-.01.009a2.727 2.727 0 00-.009.01l-.009.008-.009.01a3.838 3.838 0 00-.009.008l-.009.01-.009.008-.008.009-.009.009-.009.008-.008.009-.008.008-.009.008-.008.008a2.032 2.032 0 00-.008.008l-.008.008a1.92 1.92 0 00-.007.008l-.008.008-.008.007-.007.008-.008.007-.007.008a.287.287 0 01-.007.007l-.007.007-.007.007a1.49 1.49 0 00-.007.007l-.007.006a.835.835 0 00-.013.014l-.007.006a1.262 1.262 0 00-.006.006l-.006.007-.006.006a1.137 1.137 0 00-.006.006l-.006.006-.006.006a.766.766 0 00-.006.005l-.005.006-.006.005-.005.006-.005.005-.006.005a.8.8 0 00-.005.005l-.005.005a.436.436 0 00-.004.005l-.005.005-.005.004a.473.473 0 00-.004.005l-.004.004-.005.004-.004.004-.004.004a.09.09 0 01-.004.004l-.004.004-.003.004a.3.3 0 00-.004.003c0 .002-.002.003-.003.004a.26.26 0 00-.004.003l-.003.003-.003.003a.21.21 0 00-.003.003l-.003.003-.002.003-.003.003-.003.002-.002.003-.002.002a.108.108 0 00-.008.008l-.002.001-.001.002-.002.001-.001.002h-.001l-.001.002h-.001v.002a.01.01 0 00-.002 0v.001h-.001L6 25.25zm0 .45h4.5v-.9H6v.9zm4.5 0H22v-.9H10.5v.9zm.318-.132l5-5-.636-.636-5 5 .636.636zm9.766-6.339l-.061-.243-.873.218.06.243.874-.218zm-1.107-.243l-.022.09.873.218.022-.09-.873-.218zm-1.651 2.81l.065.016.218-.874-.065-.016-.218.873zm1.612 1.563l.03.115.872-.218-.028-.115-.874.218zm1.095.115l.065-.26-.873-.218-.065.26.873.218zm1.431-1.626l.057-.014-.218-.873-.057.014.218.873zM.55 1.75v5.325h.9V1.75h-.9zm0 5.325V24.25h.9V7.075h-.9zm20.048 16.139a1.877 1.877 0 011.366-1.366l-.218-.873a2.778 2.778 0 00-2.021 2.02l.873.219zm-2.707-1.402c.762.19 1.357.785 1.547 1.547l.874-.218a3.027 3.027 0 00-2.203-2.203l-.218.874zm1.564-2.736a2.239 2.239 0 01-1.63 1.629l.219.873a3.14 3.14 0 002.284-2.284l-.873-.218zm2.566 1.59a1.976 1.976 0 01-1.437-1.437l-.873.218a2.875 2.875 0 002.092 2.093l.218-.874zm-.218.873c-.302-.075-.302-.503 0-.579l.218.874c.607-.152.607-1.016 0-1.168l-.218.873zm-2.336 1.935c.139.555.927.555 1.066 0l-.873-.218c.088-.354.592-.354.68 0l-.873.218zM23.45 1.75C23.45.95 22.801.3 22 .3v.9a.55.55 0 01.55.55h.9zM2 24.8a.55.55 0 01-.55-.55h-.9c0 .8.65 1.45 1.45 1.45v-.9zm18.523-5.814c-.136-.544-.91-.544-1.046 0l.873.218c-.09.365-.61.365-.7 0l.873-.218zm-2.697 1.719c-.568.142-.568.948 0 1.09l.218-.873c.341.085.341.57 0 .656l-.218-.873zm4.724 3.545a.55.55 0 01-.55.55v.9c.8 0 1.45-.65 1.45-1.45h-.9zM2 .3C1.2.3.55.95.55 1.75h.9A.55.55 0 012 1.2V.3z" fill="#2682C4"/></svg>