<svg xmlns="http://www.w3.org/2000/svg" width="99" height="58" fill="none"><rect width="99" height="58" rx="12" fill="#005BFF"/><path d="M56.949 22c-5.8 0-10.501 3.354-10.501 7.495 0 4.142 4.7 7.496 10.5 7.496s10.502-3.354 10.502-7.496c0-4.141-4.701-7.495-10.501-7.495zm0 11.5c-4.005 0-7-2.108-7-3.995 0-1.888 2.995-3.995 7-3.995 4.004 0 7 2.107 7 3.995 0 1.887-2.987 3.995-7 3.995zM22.505 22A7.506 7.506 0 0015 29.495 7.506 7.506 0 0022.495 37 7.506 7.506 0 0030 29.505 7.495 7.495 0 0022.505 22zm3.995 7.495a4.006 4.006 0 01-3.995 4.005 4 4 0 113.995-4.005zm17.208 3.665H37.76l7.587-10.015a.503.503 0 00-.403-.806H34.04c-1.081 0-2.007.99-1.778 2.108.165.824.935 1.383 1.778 1.383h4.884l-7.596 10.025a.496.496 0 00.393.797h11.922c.843 0 1.613-.56 1.777-1.384a1.747 1.747 0 00-1.713-2.107zm40.024-9.07v12.067a.51.51 0 01-.825.394l-9.456-7.505v5.865a1.75 1.75 0 01-1.805 1.75c-.953-.028-1.695-.843-1.695-1.796V22.843a.5.5 0 01.11-.32.506.506 0 01.706-.074l9.456 7.505v-5.819c0-.953.742-1.76 1.686-1.796a1.756 1.756 0 011.823 1.75z" fill="#fff"/></svg>