<svg xmlns="http://www.w3.org/2000/svg" width="59" height="59" fill="none"><rect width="59" height="59" rx="29.5" fill="#005BFF"/><path d="M34.906 25c-4.135 0-7.487 2.39-7.487 5.344 0 2.952 3.352 5.343 7.487 5.343s7.486-2.39 7.486-5.343S39.04 25 34.906 25zm0 8.198c-2.855 0-4.991-1.502-4.991-2.848 0-1.346 2.136-2.848 4.99-2.848 2.855 0 4.992 1.502 4.992 2.848 0 1.346-2.13 2.848-4.991 2.848zM10.35 25A5.351 5.351 0 005 30.344a5.352 5.352 0 005.344 5.35 5.351 5.351 0 005.35-5.344c0-2.96-2.391-5.35-5.344-5.35zm2.848 5.344a2.856 2.856 0 01-2.848 2.854 2.852 2.852 0 112.848-2.854zm12.268 2.613h-4.24l5.41-7.14a.359.359 0 00-.288-.575h-7.773c-.771 0-1.431.705-1.268 1.502.118.588.667.987 1.268.987h3.481l-5.415 7.146a.353.353 0 00.28.568h8.5c.6 0 1.15-.398 1.267-.986a1.246 1.246 0 00-1.222-1.502zM54 26.49v8.603a.363.363 0 01-.588.28l-6.741-5.35v4.181c0 .706-.582 1.268-1.287 1.248-.68-.02-1.209-.601-1.209-1.28V25.6a.36.36 0 01.079-.229.361.361 0 01.503-.052l6.741 5.35v-4.148c0-.68.53-1.254 1.202-1.28.712-.026 1.3.542 1.3 1.247z" fill="#fff"/></svg>