<svg xmlns="http://www.w3.org/2000/svg" width="99" height="58" fill="none"><rect width="99" height="58" rx="12" fill="#fff"/><rect width="99" height="58" rx="12" fill="url(#paint0_linear_152_577)"/><path d="M33.68 24.868H30l5.396 14.471h2.453l3.189-8.584 3.434 8.584h2.453l5.641-14.471h-3.924l-3.19 8.34-2.942-8.34h-2.453l-3.189 8.34-3.189-8.34z" fill="#fff"/><path opacity=".9" d="M56.735 25.736a7.85 7.85 0 114.416 14.339 7.848 7.848 0 01-7.832-7.358h-.018V18h3.434v7.736zm4.416 2.21a4.28 4.28 0 100 8.561 4.28 4.28 0 000-8.56z" fill="#fff"/><defs><linearGradient id="paint0_linear_152_577" x1="50.339" y1="-12.78" x2="6.704" y2="49.997" gradientUnits="userSpaceOnUse"><stop offset=".049" stop-color="#FF4DD4"/><stop offset="1" stop-color="#6800FB"/></linearGradient></defs></svg>