<svg width="510" height="428" fill="none" xmlns="http://www.w3.org/2000/svg"><path d="M421.214 135c-3.767 0-7.534-.932-10.359-3.726-7.534-6.52-9.417-17.698-2.825-26.082l70.63-95.943c5.65-8.384 16.951-9.315 24.485-3.726 7.534 6.52 9.417 17.698 2.825 26.082l-70.63 95.943c-2.825 4.658-8.475 7.452-14.126 7.452z" fill="#FAF9F9"/><path d="M422.796 135c-4.721 0-10.386-1.88-13.219-6.581l-75.536-97.776c-6.61-7.521-4.721-19.743 2.832-26.324 7.554-6.581 18.885-5.641 24.55 2.82l75.536 97.776c6.61 7.521 4.721 19.743-2.833 26.324-3.776 1.881-7.553 3.761-11.33 3.761zm-3.695 23.13c-9.42 0-17.898 8.404-17.898 18.676 0 56.028-24.492 112.991-67.825 155.012-42.391 42.021-97.97 63.499-149.782 58.83-44.275-3.735-84.782-25.213-113.042-61.631-26.377-33.617-39.565-74.705-35.797-115.792 8.478-98.984 80.072-142.873 147.897-142.873 32.029 0 66.884 16.809 88.55 42.955 15.073 17.743 31.087 47.624 26.377 91.513-2.826 28.948-15.073 52.293-34.855 68.168-20.724 16.809-49.927 23.345-74.42 18.676-30.144-5.603-63.115-32.683-57.463-77.506 4.71-39.219 32.029-51.359 53.695-48.558 38.623 5.603 38.623 37.353 36.739 46.691-3.768 23.345-20.724 21.477-23.55 21.477-14.131-1.867-12.247-14.007-10.363-18.676 3.768-9.338 0-20.544-8.478-24.279-8.478-4.669-18.84 0-23.55 9.338-5.652 14.007-4.71 29.882 1.884 43.889 7.536 13.073 19.782 22.412 33.913 24.279 25.434 3.735 55.579-11.206 64.057-46.69 4.71-20.544.942-41.088-10.362-57.896-13.189-18.676-34.855-31.75-57.464-33.617-38.622-2.802-83.839 21.477-91.376 82.175-6.594 56.962 29.203 104.586 86.666 115.792 33.913 6.536 73.478-2.802 101.739-26.147 28.26-22.411 45.217-54.161 48.985-93.38 5.652-57.896-16.015-98.05-34.855-120.461C269.32 53.544 225.987 33 183.596 33 139.321 33 96.93 48.875 63.96 77.823 28.163 109.572 5.554 155.329.844 209.489c-4.71 51.36 10.363 101.785 43.333 142.873 34.855 43.889 83.84 70.035 137.535 74.704 5.652.934 11.305.934 16.015.934 57.463 0 114.926-24.279 160.143-69.102C407.797 309.407 437 243.106 437 176.806c0-10.272-8.478-18.676-17.899-18.676z" fill="#FAF9F9"/></svg>